<mxfile host="app.diagrams.net" modified="2024-04-19T19:38:00.273Z" agent="Mozilla/5.0 (Macintosh; Intel Mac OS X 10_15_7) AppleWebKit/537.36 (KHTML, like Gecko) Chrome/119.0.0.0 Safari/537.36" version="24.2.0" etag="EOZY8YkTs97374zaGjeI" type="github">
  <diagram name="第 1 页" id="U61jWdpmHPWYtTih66IY">
    <mxGraphModel>
      <root>
        <mxCell id="0" />
        <mxCell id="1" parent="0" />
      </root>
    </mxGraphModel>
  </diagram>
</mxfile>
